<?xml version="1.0" encoding="UTF-8" standalone="no"?>
<svg
   height="24"
   version="1.1"
   width="24"
   id="svg95"
   xmlns="http://www.w3.org/2000/svg"
   xmlns:svg="http://www.w3.org/2000/svg">
  <defs
     id="defs99">
    <style
       id="style181">.cls-1{fill:#efcc00;}</style>
  </defs>
  <g
     transform="translate(0 -1028.4)"
     id="g93">
    <path
       d="m5 1032.4c-1.1046 0-2 0.9-2 2v14c0 1.1 0.8954 2 2 2h6 2 6c1.105 0 2-0.9 2-2v-14c0-1.1-0.895-2-2-2h-6-2-6z"
       fill="#bdc3c7"
       id="path71" />
    <path
       d="m5 3c-1.1046 0-2 0.8954-2 2v14c0 1.105 0.8954 2 2 2h6 2 6c1.105 0 2-0.895 2-2v-14c0-1.1046-0.895-2-2-2h-6-2-6z"
       fill="#ecf0f1"
       transform="translate(0 1028.4)"
       id="path73" />
    <path
       d="m5 3c-1.1046 0-2 0.8954-2 2v3 1h18v-1-3c0-1.1046-0.895-2-2-2h-6-2-6z"
       fill="#e74c3c"
       transform="translate(0 1028.4)"
       id="path75" />
    <path
       d="m7 5.5a1.5 1.5 0 1 1 -3 0 1.5 1.5 0 1 1 3 0z"
       fill="#c0392b"
       transform="translate(.5 1028.4)"
       id="path77" />
    <path
       d="m6 1c-0.5523 0-1 0.4477-1 1v3c0 0.5523 0.4477 1 1 1s1-0.4477 1-1v-3c0-0.5523-0.4477-1-1-1z"
       fill="#bdc3c7"
       transform="translate(0 1028.4)"
       id="path79" />
    <path
       d="m7 5.5a1.5 1.5 0 1 1 -3 0 1.5 1.5 0 1 1 3 0z"
       fill="#c0392b"
       transform="translate(12.5 1028.4)"
       id="path81" />
    <g
       fill="#bdc3c7"
       id="g91">
      <path
         d="m18 1029.4c-0.552 0-1 0.4-1 1v3c0 0.5 0.448 1 1 1s1-0.5 1-1v-3c0-0.6-0.448-1-1-1z"
         id="path83" />
      <path
         d="m5 1039.4v2h2v-2h-2zm3 0v2h2v-2h-2zm3 0v2h2v-2h-2zm3 0v2h2v-2h-2zm3 0v2h2v-2h-2z"
         id="path85" />
      <path
         d="m5 1042.4v2h2v-2h-2zm3 0v2h2v-2h-2zm3 0v2h2v-2h-2zm3 0v2h2v-2h-2zm3 0v2h2v-2h-2z"
         id="path87" />
      <path
         d="m5 1045.4v2h2v-2h-2zm3 0v2h2v-2h-2zm3 0v2h2v-2h-2zm3 0v2h2v-2h-2zm3 0v2h2v-2h-2z"
         id="path89" />
    </g>
  </g>
  <polygon
     class="cls-1"
     points="27.48,35.45 22.88,55 44.73,27.4 34.38,27.4 43.58,9 22.88,9 18.27,35.45 "
     id="polygon187"
     transform="matrix(0.27175639,0,0,0.27175639,10.782214,8.5541925)"
     style="fill:#fc00de;fill-opacity:1" />
</svg>
